<?xml version="1.0" encoding="UTF-8"?>
<svg xmlns="http://www.w3.org/2000/svg" xmlns:xlink="http://www.w3.org/1999/xlink" width="308px" height="304px" viewBox="0 0 308 304" version="1.1">
<defs>
<clipPath id="clip1">
  <path d="M 61.601562 85.523438 L 246.402344 85.523438 L 246.402344 191.574219 L 61.601562 191.574219 Z M 61.601562 85.523438 "/>
</clipPath>
<clipPath id="clip2">
  <path d="M 61.601562 207.050781 L 246.402344 207.050781 L 246.402344 218.472656 L 61.601562 218.472656 Z M 61.601562 207.050781 "/>
</clipPath>
</defs>
<g id="surface1">
<path style=" stroke:none;fill-rule:nonzero;fill:rgb(11.764706%,73.333333%,84.313725%);fill-opacity:1;" d="M 20.175781 191.875 L 23.761719 195.808594 L 21.96875 190.695312 C 21.519531 188.332031 18.382812 191.085938 20.175781 191.875 M 24.210938 189.515625 C 25.554688 191.480469 26.898438 193.449219 26.898438 195.414062 C 26.898438 198.167969 29.589844 199.347656 31.832031 200.132812 C 28.691406 196.988281 26.898438 188.332031 24.210938 189.515625 M 196.367188 22.738281 C 203.988281 22.738281 211.160156 21.953125 219.230469 23.527344 C 238.957031 27.851562 255.546875 36.507812 266.753906 48.699219 L 298.136719 92.753906 C 299.480469 103.765625 302.171875 115.960938 301.722656 129.335938 C 304.863281 129.335938 304.414062 125.402344 308 124.613281 C 304.414062 132.480469 302.621094 142.3125 301.722656 153.722656 C 299.480469 147.425781 301.722656 137.988281 302.171875 132.875 C 299.035156 137.199219 297.238281 134.054688 297.238281 132.085938 C 297.6875 128.941406 295.894531 129.332031 294.550781 128.152344 C 289.617188 124.21875 286.480469 119.894531 282.894531 113.207031 C 285.136719 108.09375 285.585938 100.621094 278.410156 96.6875 C 276.167969 95.507812 273.480469 93.539062 272.132812 90.394531 C 270.339844 86.066406 267.203125 80.953125 268.097656 74.265625 C 268.546875 72.300781 261.375 78.59375 257.339844 75.839844 C 239.855469 65.21875 222.371094 53.027344 201.296875 42.800781 C 190.089844 42.800781 182.019531 39.261719 177.984375 34.933594 C 174.398438 31 177.089844 25.886719 182.46875 25.492188 C 185.609375 25.492188 189.195312 24.707031 191.882812 26.28125 C 192.332031 24.707031 194.125 22.738281 196.367188 22.738281 M 151.984375 13.691406 L 152.878906 14.085938 C 157.363281 14.875 159.605469 20.378906 164.535156 18.414062 C 164.535156 21.167969 164.984375 23.917969 164.085938 25.886719 C 162.742188 29.03125 158.707031 29.03125 155.570312 29.03125 C 125.53125 27.460938 108.046875 38.472656 89.664062 47.914062 C 84.734375 50.667969 79.355469 52.632812 75.320312 56.171875 C 56.039062 71.90625 34.96875 86.460938 30.039062 115.566406 L 26.003906 147.820312 C 25.554688 151.359375 21.070312 154.902344 21.96875 159.226562 L 25.105469 178.5 C 21.96875 175.746094 20.175781 179.289062 21.070312 180.863281 C 21.519531 182.042969 23.3125 185.972656 26.003906 182.433594 C 29.589844 188.335938 33.175781 199.742188 38.105469 204.855469 C 53.351562 220.589844 73.078125 234.746094 89.21875 248.910156 C 93.25 248.121094 96.390625 248.121094 97.285156 245.761719 C 98.632812 248.121094 95.941406 250.480469 93.699219 250.875 C 100.875 254.808594 108.945312 258.347656 119.703125 259.132812 C 133.601562 259.921875 146.601562 261.886719 158.707031 264.640625 C 164.984375 263.070312 171.261719 262.28125 177.984375 261.886719 C 180.226562 261.886719 181.570312 258.742188 184.261719 257.953125 L 184.710938 254.023438 C 187.402344 257.5625 186.953125 252.84375 185.160156 250.480469 C 188.296875 252.84375 189.195312 254.808594 190.539062 256.382812 C 190.539062 255.203125 194.125 250.875 194.125 255.988281 L 195.023438 250.875 C 196.367188 250.089844 196.816406 255.203125 198.160156 251.660156 C 199.503906 248.121094 202.195312 250.875 204.886719 249.695312 C 203.988281 251.269531 204.4375 254.414062 207.574219 252.449219 L 211.160156 249.695312 C 213.402344 254.414062 216.988281 252.449219 218.78125 251.660156 C 238.507812 240.648438 258.234375 227.667969 277.066406 214.6875 L 276.617188 219.800781 L 278.859375 213.507812 C 281.101562 215.472656 282.894531 213.902344 283.789062 212.722656 C 286.480469 208.789062 290.066406 204.855469 295.894531 201.316406 C 288.722656 218.226562 280.203125 231.601562 269.445312 242.613281 L 264.960938 247.335938 C 264.960938 250.089844 264.0625 253.628906 260.476562 254.023438 C 258.683594 254.414062 255.097656 253.234375 252.40625 255.59375 C 251.0625 257.167969 255.546875 260.316406 251.960938 257.953125 C 248.820312 255.988281 245.683594 257.953125 242.09375 258.742188 C 239.40625 259.527344 243.890625 261.886719 244.785156 263.460938 C 245.683594 265.035156 246.578125 266.609375 246.132812 268.574219 L 241.199219 263.855469 C 235.371094 266.609375 231.785156 271.722656 226.851562 275.65625 C 224.609375 277.230469 225.507812 279.980469 225.507812 282.339844 C 222.371094 282.339844 218.78125 281.554688 216.988281 283.128906 C 215.644531 284.703125 216.09375 287.0625 216.09375 289.421875 C 211.609375 289.027344 211.160156 283.128906 207.128906 284.308594 C 203.09375 285.09375 198.609375 285.488281 195.023438 287.457031 C 197.710938 292.175781 190.539062 289.421875 191.433594 290.207031 C 184.710938 286.667969 178.882812 283.914062 171.710938 286.273438 C 156.464844 281.949219 137.636719 283.914062 123.738281 285.488281 C 123.738281 283.523438 124.1875 281.554688 123.289062 281.160156 C 122.390625 283.128906 119.703125 282.339844 120.152344 282.339844 C 111.632812 277.230469 103.117188 274.082031 94.148438 269.753906 C 86.078125 270.542969 78.457031 267 76.214844 265.035156 C 69.9375 259.921875 62.765625 262.675781 56.9375 261.496094 C 44.382812 258.742188 39.902344 247.335938 38.554688 239.46875 C 37.660156 235.535156 34.074219 233.960938 32.726562 234.355469 C 26.898438 217.835938 17.933594 202.886719 10.761719 187.546875 C 8.964844 183.613281 9.414062 179.679688 9.414062 175.355469 C 11.65625 176.140625 13.898438 175.746094 13.449219 172.996094 C 11.207031 160.015625 5.828125 150.179688 0 140.742188 C 3.140625 127.367188 3.585938 111.632812 10.761719 99.832031 C 17.035156 89.214844 28.691406 83.707031 36.761719 74.660156 C 39.453125 71.511719 39.453125 67.1875 42.144531 64.433594 C 51.109375 56.566406 60.078125 48.304688 69.9375 41.226562 C 74.421875 38.082031 79.800781 41.226562 86.527344 40.046875 C 88.769531 32.96875 97.734375 26.671875 106.253906 28.640625 C 109.839844 29.425781 117.011719 21.167969 119.253906 20.378906 C 122.839844 19.199219 121.046875 23.527344 121.046875 26.28125 C 129.566406 20.378906 141.222656 17.234375 151.984375 13.691406 "/>
<g clip-path="url(#clip1)" clip-rule="nonzero">
<path style=" stroke:none;fill-rule:nonzero;fill:rgb(11.764706%,73.333333%,84.313725%);fill-opacity:1;" d="M 131.445312 163 C 131.445312 172.066406 127.902344 179.066406 120.820312 183.996094 C 113.738281 188.949219 104.621094 191.421875 93.472656 191.421875 C 81.164062 191.421875 70.714844 189.234375 62.121094 184.851562 L 62.121094 171.558594 C 70.597656 177.160156 80.933594 179.960938 93.125 179.960938 C 100.441406 179.960938 106.1875 178.535156 110.367188 175.683594 C 114.550781 172.832031 116.640625 168.707031 116.640625 163.304688 C 116.640625 161.066406 116.152344 159.046875 115.175781 157.253906 C 114.175781 155.480469 112.550781 153.851562 110.300781 152.363281 C 108.023438 150.898438 105.875 149.675781 103.855469 148.695312 C 101.8125 147.738281 99.046875 146.546875 95.5625 145.121094 C 94.867188 144.816406 93.824219 144.40625 92.429688 143.898438 C 87.4375 141.964844 83.640625 140.382812 81.039062 139.160156 C 78.414062 137.9375 75.335938 136.125 71.808594 133.722656 C 68.253906 131.335938 65.664062 128.566406 64.039062 125.410156 C 62.414062 122.25 61.601562 118.582031 61.601562 114.40625 C 61.601562 105.644531 65.175781 98.789062 72.328125 93.835938 C 79.457031 88.90625 88.421875 86.441406 99.222656 86.441406 C 109.324219 86.441406 117.917969 88.019531 125 91.179688 L 125 104.167969 C 117.917969 100.09375 109.441406 98.054688 99.570312 98.054688 C 92.488281 98.054688 86.855469 99.5 82.675781 102.394531 C 78.496094 105.308594 76.40625 109.109375 76.40625 113.792969 C 76.40625 116.238281 76.960938 118.429688 78.078125 120.367188 C 79.167969 122.300781 81.109375 124.105469 83.894531 125.773438 C 86.679688 127.464844 89.0625 128.738281 91.035156 129.59375 C 93.007812 130.472656 96.085938 131.726562 100.265625 133.355469 C 104.214844 134.882812 107.234375 136.074219 109.324219 136.929688 C 111.414062 137.804688 114.121094 139.183594 117.441406 141.054688 C 120.738281 142.953125 123.234375 144.785156 124.929688 146.558594 C 126.601562 148.351562 128.113281 150.695312 129.457031 153.585938 C 130.78125 156.5 131.445312 159.636719 131.445312 163 Z M 246.226562 181.796875 L 246.398438 182.253906 C 236.996094 188.46875 224.859375 191.574219 209.996094 191.574219 C 191.882812 191.574219 177.308594 186.859375 166.28125 177.425781 C 155.25 168.011719 149.734375 155.105469 149.734375 138.703125 C 149.734375 123.117188 155.214844 110.351562 166.175781 100.410156 C 177.160156 90.484375 191.011719 85.523438 207.734375 85.523438 C 221.550781 85.523438 232.988281 87.867188 242.046875 92.554688 L 242.046875 105.847656 C 232.523438 100.347656 221.492188 97.597656 208.953125 97.597656 C 195.832031 97.597656 185.148438 101.335938 176.902344 108.8125 C 168.660156 116.3125 164.539062 126.273438 164.539062 138.703125 C 164.539062 151.4375 168.601562 161.441406 176.730469 168.714844 C 184.859375 176.007812 196.0625 179.65625 210.347656 179.65625 C 218.242188 179.65625 225.558594 178.28125 232.292969 175.53125 L 232.292969 143.441406 L 206.515625 143.441406 L 206.515625 132.589844 L 246.398438 132.589844 L 246.398438 181.796875 Z M 246.226562 181.796875 "/>
</g>
<g clip-path="url(#clip2)" clip-rule="nonzero">
<path style=" stroke:none;fill-rule:nonzero;fill:rgb(11.764706%,73.333333%,84.313725%);fill-opacity:1;" d="M 63.609375 208.421875 L 63.609375 215.082031 L 65.589844 215.023438 C 65.878906 215.015625 66.125 214.988281 66.324219 214.9375 C 66.527344 214.886719 66.703125 214.808594 66.851562 214.699219 C 66.996094 214.589844 67.117188 214.472656 67.210938 214.351562 C 67.304688 214.230469 67.410156 214.070312 67.523438 213.871094 L 67.699219 213.929688 L 67.113281 215.328125 L 67.011719 215.402344 L 62.804688 215.402344 C 62.730469 215.253906 62.691406 215.082031 62.691406 214.890625 L 62.691406 209.382812 C 62.691406 208.890625 62.625 208.5625 62.492188 208.390625 C 62.359375 208.21875 62.074219 208.148438 61.640625 208.175781 L 61.621094 208.078125 C 62.273438 207.90625 62.898438 207.820312 63.488281 207.820312 C 63.570312 208.011719 63.609375 208.210938 63.609375 208.421875 Z M 68.851562 212.855469 C 68.851562 212.484375 68.921875 212.125 69.0625 211.78125 C 69.199219 211.433594 69.398438 211.125 69.65625 210.855469 C 69.917969 210.585938 70.230469 210.367188 70.59375 210.207031 C 70.960938 210.042969 71.375 209.964844 71.832031 209.964844 C 72.117188 209.964844 72.386719 210.007812 72.640625 210.09375 C 72.894531 210.179688 73.117188 210.308594 73.304688 210.488281 C 73.496094 210.667969 73.644531 210.898438 73.753906 211.179688 C 73.863281 211.460938 73.917969 211.792969 73.917969 212.179688 L 73.683594 212.367188 L 69.792969 212.367188 C 69.785156 212.425781 69.78125 212.484375 69.78125 212.542969 C 69.78125 212.597656 69.78125 212.652344 69.78125 212.707031 C 69.78125 213.089844 69.832031 213.433594 69.933594 213.742188 C 70.035156 214.054688 70.171875 214.320312 70.34375 214.539062 C 70.519531 214.761719 70.722656 214.933594 70.957031 215.054688 C 71.191406 215.175781 71.4375 215.238281 71.699219 215.238281 C 71.867188 215.238281 72.039062 215.226562 72.210938 215.203125 C 72.382812 215.183594 72.550781 215.144531 72.714844 215.097656 C 72.882812 215.046875 73.042969 214.984375 73.195312 214.910156 C 73.351562 214.832031 73.496094 214.742188 73.625 214.632812 L 73.871094 214.855469 C 73.554688 215.128906 73.214844 215.324219 72.84375 215.4375 C 72.476562 215.554688 72.046875 215.613281 71.5625 215.613281 C 71.183594 215.613281 70.828125 215.550781 70.496094 215.421875 C 70.164062 215.292969 69.875 215.105469 69.632812 214.867188 C 69.390625 214.628906 69.199219 214.335938 69.0625 213.996094 C 68.921875 213.65625 68.851562 213.277344 68.851562 212.855469 Z M 71.699219 210.324219 C 71.085938 210.324219 70.632812 210.464844 70.347656 210.746094 C 70.0625 211.023438 69.890625 211.429688 69.832031 211.953125 L 73.148438 211.953125 C 73.117188 211.382812 72.972656 210.96875 72.710938 210.710938 C 72.449219 210.453125 72.113281 210.324219 71.699219 210.324219 Z M 76.824219 210.558594 L 76.824219 213.957031 C 76.824219 214.429688 76.886719 214.757812 77.003906 214.9375 C 77.121094 215.117188 77.316406 215.207031 77.582031 215.207031 C 77.871094 215.207031 78.226562 215.113281 78.640625 214.917969 L 78.828125 215.144531 C 78.171875 215.457031 77.636719 215.613281 77.21875 215.613281 C 76.996094 215.613281 76.816406 215.597656 76.675781 215.5625 C 76.535156 215.527344 76.410156 215.460938 76.292969 215.359375 C 76.179688 215.257812 76.097656 215.109375 76.046875 214.914062 C 75.996094 214.714844 75.972656 214.460938 75.972656 214.144531 L 75.972656 210.601562 L 75.078125 210.648438 L 75.078125 210.316406 C 75.390625 210.253906 75.691406 210.214844 75.972656 210.199219 L 75.972656 209.457031 C 76.308594 209.289062 76.585938 209.050781 76.800781 208.742188 L 76.984375 208.804688 C 76.917969 208.941406 76.875 209.101562 76.855469 209.277344 C 76.835938 209.453125 76.824219 209.75 76.824219 210.167969 L 78.875 210.167969 L 78.875 210.351562 C 78.707031 210.410156 78.539062 210.457031 78.367188 210.5 C 78.199219 210.539062 78.019531 210.558594 77.839844 210.558594 Z M 81.472656 210.558594 L 81.472656 213.957031 C 81.472656 214.429688 81.53125 214.757812 81.652344 214.9375 C 81.769531 215.117188 81.960938 215.207031 82.230469 215.207031 C 82.519531 215.207031 82.871094 215.113281 83.289062 214.917969 L 83.472656 215.144531 C 82.820312 215.457031 82.28125 215.613281 81.867188 215.613281 C 81.644531 215.613281 81.460938 215.597656 81.324219 215.5625 C 81.183594 215.527344 81.054688 215.460938 80.941406 215.359375 C 80.828125 215.257812 80.746094 215.109375 80.695312 214.914062 C 80.644531 214.714844 80.621094 214.460938 80.621094 214.144531 L 80.621094 210.601562 L 79.726562 210.648438 L 79.726562 210.316406 C 80.039062 210.253906 80.339844 210.214844 80.621094 210.199219 L 80.621094 209.457031 C 80.957031 209.289062 81.234375 209.050781 81.449219 208.742188 L 81.632812 208.804688 C 81.566406 208.941406 81.523438 209.101562 81.503906 209.277344 C 81.484375 209.453125 81.472656 209.75 81.472656 210.167969 L 83.519531 210.167969 L 83.519531 210.351562 C 83.355469 210.410156 83.1875 210.457031 83.015625 210.5 C 82.84375 210.539062 82.667969 210.558594 82.484375 210.558594 Z M 85.203125 214.878906 L 85.203125 211.527344 C 85.203125 211.03125 85.136719 210.699219 85.003906 210.53125 C 84.867188 210.359375 84.585938 210.289062 84.152344 210.316406 L 84.128906 210.21875 C 84.785156 210.050781 85.386719 209.964844 85.933594 209.964844 C 86.015625 210.144531 86.058594 210.34375 86.058594 210.558594 L 86.058594 214.460938 C 86.058594 214.734375 86.132812 214.9375 86.28125 215.070312 C 86.425781 215.203125 86.6875 215.300781 87.058594 215.359375 L 87.011719 215.484375 C 86.554688 215.429688 86.203125 215.402344 85.957031 215.402344 C 85.707031 215.402344 85.429688 215.429688 85.121094 215.484375 L 85.082031 215.433594 C 85.164062 215.332031 85.203125 215.144531 85.203125 214.878906 Z M 84.59375 208.023438 C 84.972656 207.832031 85.398438 207.671875 85.875 207.542969 C 85.875 207.832031 85.929688 208.117188 86.035156 208.402344 L 85.957031 208.496094 C 85.582031 208.515625 85.1875 208.609375 84.777344 208.769531 C 84.679688 208.53125 84.617188 208.28125 84.59375 208.023438 Z M 88.742188 214.878906 L 88.742188 211.527344 C 88.742188 211.292969 88.726562 211.097656 88.703125 210.941406 C 88.675781 210.785156 88.628906 210.660156 88.566406 210.566406 C 88.5 210.472656 88.410156 210.40625 88.292969 210.367188 C 88.179688 210.328125 88.054688 210.308594 87.925781 210.308594 C 87.796875 210.308594 87.71875 210.308594 87.691406 210.316406 L 87.667969 210.21875 C 88.316406 210.050781 88.917969 209.964844 89.472656 209.964844 C 89.554688 210.148438 89.597656 210.347656 89.597656 210.558594 L 89.597656 210.710938 C 89.828125 210.574219 90.042969 210.457031 90.234375 210.355469 C 90.429688 210.253906 90.621094 210.167969 90.8125 210.097656 C 91 210.03125 91.195312 209.976562 91.390625 209.941406 C 91.589844 209.90625 91.808594 209.890625 92.046875 209.890625 C 92.261719 209.890625 92.476562 209.914062 92.6875 209.964844 C 92.902344 210.011719 93.089844 210.097656 93.257812 210.226562 C 93.429688 210.351562 93.566406 210.519531 93.671875 210.738281 C 93.777344 210.953125 93.832031 211.226562 93.832031 211.558594 L 93.832031 214.808594 C 93.832031 214.894531 93.851562 214.964844 93.898438 215.019531 C 93.945312 215.074219 94.003906 215.121094 94.078125 215.160156 C 94.148438 215.199219 94.234375 215.230469 94.332031 215.257812 C 94.425781 215.28125 94.523438 215.308594 94.628906 215.339844 L 94.574219 215.460938 C 94.351562 215.421875 94.054688 215.402344 93.6875 215.402344 C 93.460938 215.402344 93.195312 215.429688 92.894531 215.484375 L 92.859375 215.433594 C 92.9375 215.332031 92.976562 215.144531 92.976562 214.878906 L 92.976562 211.75 C 92.976562 211.457031 92.945312 211.21875 92.878906 211.03125 C 92.816406 210.847656 92.730469 210.699219 92.621094 210.59375 C 92.511719 210.488281 92.386719 210.414062 92.242188 210.371094 C 92.097656 210.328125 91.941406 210.308594 91.78125 210.308594 C 91.582031 210.308594 91.394531 210.324219 91.222656 210.355469 C 91.046875 210.386719 90.875 210.433594 90.703125 210.5 C 90.53125 210.5625 90.355469 210.644531 90.175781 210.738281 C 89.996094 210.835938 89.804688 210.949219 89.597656 211.078125 L 89.597656 214.683594 C 89.597656 214.796875 89.609375 214.886719 89.628906 214.953125 C 89.648438 215.019531 89.691406 215.078125 89.753906 215.125 C 89.816406 215.167969 89.90625 215.207031 90.023438 215.246094 C 90.136719 215.277344 90.289062 215.316406 90.472656 215.359375 L 90.429688 215.484375 C 90.195312 215.457031 90 215.4375 89.839844 215.421875 C 89.679688 215.40625 89.546875 215.402344 89.449219 215.402344 C 89.222656 215.402344 88.957031 215.429688 88.65625 215.484375 L 88.621094 215.433594 C 88.703125 215.332031 88.742188 215.144531 88.742188 214.878906 Z M 101.242188 216.726562 C 101.242188 217.078125 101.09375 217.386719 100.796875 217.65625 C 100.503906 217.925781 100.121094 218.128906 99.652344 218.269531 C 99.183594 218.40625 98.675781 218.476562 98.128906 218.476562 C 97.714844 218.476562 97.339844 218.425781 97.003906 218.328125 C 96.671875 218.230469 96.394531 218.070312 96.175781 217.839844 C 95.957031 217.613281 95.847656 217.339844 95.847656 217.015625 C 95.847656 216.679688 96.019531 216.363281 96.355469 216.074219 C 96.691406 215.785156 97.136719 215.539062 97.6875 215.339844 C 97.191406 215.238281 96.828125 215.132812 96.609375 215.015625 C 96.390625 214.898438 96.28125 214.71875 96.28125 214.46875 C 96.28125 214.25 96.359375 214.074219 96.515625 213.941406 C 96.671875 213.804688 96.9375 213.695312 97.308594 213.613281 C 96.871094 213.492188 96.53125 213.289062 96.285156 213 C 96.042969 212.710938 95.917969 212.335938 95.917969 211.875 C 95.917969 211.542969 96.03125 211.226562 96.257812 210.929688 C 96.480469 210.632812 96.777344 210.398438 97.144531 210.226562 C 97.511719 210.050781 97.898438 209.964844 98.296875 209.964844 C 98.757812 209.964844 99.167969 210.027344 99.519531 210.152344 L 101.472656 209.964844 L 101.519531 210.140625 L 101.089844 210.527344 L 100.03125 210.445312 C 100.441406 210.765625 100.644531 211.226562 100.644531 211.835938 C 100.644531 212.140625 100.539062 212.441406 100.328125 212.726562 C 100.121094 213.019531 99.828125 213.253906 99.457031 213.4375 C 99.089844 213.625 98.695312 213.71875 98.273438 213.71875 C 97.703125 213.804688 97.335938 213.878906 97.175781 213.945312 C 97.011719 214.011719 96.933594 214.121094 96.933594 214.265625 C 96.933594 214.351562 97.042969 214.4375 97.261719 214.519531 C 97.480469 214.601562 97.910156 214.714844 98.554688 214.855469 C 98.847656 214.917969 99.097656 214.976562 99.300781 215.027344 C 99.5 215.078125 99.703125 215.136719 99.90625 215.199219 C 100.109375 215.261719 100.273438 215.328125 100.402344 215.394531 C 100.535156 215.460938 100.65625 215.539062 100.773438 215.628906 C 100.890625 215.714844 100.980469 215.8125 101.042969 215.921875 C 101.105469 216.027344 101.152344 216.144531 101.1875 216.277344 C 101.222656 216.410156 101.242188 216.5625 101.242188 216.726562 Z M 98.496094 215.472656 L 98.25 215.421875 C 97.75 215.585938 97.355469 215.808594 97.0625 216.085938 C 96.773438 216.363281 96.628906 216.644531 96.628906 216.929688 C 96.628906 217.132812 96.691406 217.3125 96.816406 217.46875 C 96.941406 217.625 97.109375 217.742188 97.320312 217.832031 C 97.53125 217.917969 97.753906 217.984375 97.992188 218.027344 C 98.230469 218.066406 98.480469 218.085938 98.738281 218.085938 C 99.902344 218.085938 100.484375 217.6875 100.484375 216.890625 C 100.484375 216.503906 100.320312 216.203125 99.988281 215.984375 C 99.65625 215.769531 99.160156 215.597656 98.496094 215.472656 Z M 98.050781 210.335938 C 97.554688 210.335938 97.207031 210.445312 97.011719 210.671875 C 96.820312 210.898438 96.726562 211.269531 96.726562 211.792969 C 96.726562 212.035156 96.769531 212.253906 96.859375 212.441406 C 96.949219 212.632812 97.0625 212.78125 97.195312 212.894531 C 97.332031 213.003906 97.488281 213.09375 97.667969 213.164062 C 97.851562 213.234375 98.019531 213.285156 98.175781 213.308594 C 98.332031 213.335938 98.488281 213.347656 98.644531 213.347656 C 99.046875 213.347656 99.347656 213.21875 99.542969 212.964844 C 99.738281 212.710938 99.835938 212.359375 99.835938 211.917969 C 99.835938 211.664062 99.789062 211.4375 99.699219 211.242188 C 99.609375 211.046875 99.5 210.890625 99.375 210.78125 C 99.246094 210.671875 99.09375 210.582031 98.925781 210.507812 C 98.753906 210.4375 98.597656 210.390625 98.457031 210.367188 C 98.320312 210.34375 98.183594 210.335938 98.050781 210.335938 Z M 107.289062 210.558594 L 107.289062 213.957031 C 107.289062 214.429688 107.347656 214.757812 107.464844 214.9375 C 107.585938 215.117188 107.777344 215.207031 108.046875 215.207031 C 108.335938 215.207031 108.6875 215.113281 109.105469 214.917969 L 109.289062 215.144531 C 108.632812 215.457031 108.097656 215.613281 107.679688 215.613281 C 107.457031 215.613281 107.277344 215.597656 107.140625 215.5625 C 107 215.527344 106.875 215.460938 106.757812 215.359375 C 106.644531 215.257812 106.558594 215.109375 106.511719 214.914062 C 106.460938 214.714844 106.4375 214.460938 106.4375 214.144531 L 106.4375 210.601562 L 105.542969 210.648438 L 105.542969 210.316406 C 105.855469 210.253906 106.15625 210.214844 106.4375 210.199219 L 106.4375 209.457031 C 106.773438 209.289062 107.050781 209.050781 107.265625 208.742188 L 107.449219 208.804688 C 107.382812 208.941406 107.335938 209.101562 107.316406 209.277344 C 107.296875 209.453125 107.289062 209.75 107.289062 210.167969 L 109.339844 210.167969 L 109.339844 210.351562 C 109.171875 210.410156 109 210.457031 108.832031 210.5 C 108.660156 210.539062 108.484375 210.558594 108.300781 210.558594 Z M 115.253906 214.878906 L 115.253906 211.75 C 115.253906 211.457031 115.222656 211.21875 115.160156 211.03125 C 115.097656 210.847656 115.011719 210.699219 114.902344 210.59375 C 114.789062 210.488281 114.664062 210.414062 114.519531 210.371094 C 114.371094 210.328125 114.21875 210.308594 114.054688 210.308594 C 113.859375 210.308594 113.671875 210.324219 113.5 210.355469 C 113.328125 210.386719 113.15625 210.433594 112.984375 210.5 C 112.808594 210.5625 112.632812 210.644531 112.453125 210.738281 C 112.277344 210.835938 112.082031 210.949219 111.875 211.078125 L 111.875 214.683594 C 111.875 214.796875 111.886719 214.886719 111.90625 214.953125 C 111.925781 215.019531 111.96875 215.078125 112.03125 215.125 C 112.09375 215.167969 112.183594 215.207031 112.300781 215.246094 C 112.414062 215.277344 112.566406 215.316406 112.753906 215.359375 L 112.703125 215.484375 C 112.472656 215.457031 112.277344 215.4375 112.117188 215.421875 C 111.957031 215.40625 111.796875 215.402344 111.632812 215.402344 C 111.46875 215.402344 111.234375 215.429688 110.933594 215.484375 L 110.898438 215.433594 C 110.976562 215.332031 111.019531 215.144531 111.019531 214.878906 L 111.019531 208.613281 C 111.019531 208.378906 111.003906 208.1875 110.980469 208.03125 C 110.953125 207.871094 110.90625 207.746094 110.84375 207.652344 C 110.777344 207.558594 110.6875 207.492188 110.570312 207.453125 C 110.457031 207.414062 110.332031 207.394531 110.203125 207.394531 C 110.074219 207.394531 109.996094 207.398438 109.96875 207.402344 L 109.945312 207.308594 C 110.59375 207.136719 111.195312 207.050781 111.75 207.050781 C 111.835938 207.234375 111.875 207.433594 111.875 207.648438 L 111.875 210.710938 C 112.148438 210.546875 112.398438 210.410156 112.625 210.304688 C 112.847656 210.199219 113.058594 210.113281 113.257812 210.050781 C 113.453125 209.988281 113.640625 209.945312 113.816406 209.921875 C 113.992188 209.898438 114.171875 209.882812 114.355469 209.882812 C 114.605469 209.882812 114.835938 209.914062 115.042969 209.972656 C 115.25 210.027344 115.429688 210.121094 115.582031 210.253906 C 115.734375 210.382812 115.855469 210.554688 115.945312 210.769531 C 116.035156 210.980469 116.089844 211.246094 116.105469 211.558594 L 116.105469 214.808594 C 116.105469 214.894531 116.128906 214.964844 116.175781 215.019531 C 116.21875 215.074219 116.28125 215.121094 116.351562 215.160156 C 116.429688 215.199219 116.511719 215.230469 116.605469 215.257812 C 116.703125 215.28125 116.800781 215.308594 116.90625 215.339844 L 116.851562 215.460938 C 116.628906 215.421875 116.367188 215.402344 116.070312 215.402344 C 115.773438 215.402344 115.472656 215.429688 115.171875 215.484375 L 115.136719 215.433594 C 115.214844 215.332031 115.253906 215.144531 115.253906 214.878906 Z M 118.0625 212.855469 C 118.0625 212.484375 118.128906 212.125 118.269531 211.78125 C 118.40625 211.433594 118.605469 211.125 118.863281 210.855469 C 119.125 210.585938 119.4375 210.367188 119.804688 210.207031 C 120.171875 210.042969 120.582031 209.964844 121.039062 209.964844 C 121.324219 209.964844 121.597656 210.007812 121.851562 210.09375 C 122.105469 210.179688 122.328125 210.308594 122.515625 210.488281 C 122.703125 210.667969 122.851562 210.898438 122.960938 211.179688 C 123.070312 211.460938 123.125 211.792969 123.125 212.179688 L 122.894531 212.367188 L 119 212.367188 C 118.992188 212.425781 118.988281 212.484375 118.988281 212.542969 C 118.988281 212.597656 118.988281 212.652344 118.988281 212.707031 C 118.988281 213.089844 119.039062 213.433594 119.144531 213.742188 C 119.242188 214.054688 119.378906 214.320312 119.554688 214.539062 C 119.726562 214.761719 119.929688 214.933594 120.164062 215.054688 C 120.398438 215.175781 120.644531 215.238281 120.910156 215.238281 C 121.074219 215.238281 121.246094 215.226562 121.417969 215.203125 C 121.589844 215.183594 121.757812 215.144531 121.925781 215.097656 C 122.089844 215.046875 122.25 214.984375 122.402344 214.910156 C 122.558594 214.832031 122.703125 214.742188 122.832031 214.632812 L 123.078125 214.855469 C 122.761719 215.128906 122.421875 215.324219 122.050781 215.4375 C 121.683594 215.554688 121.253906 215.613281 120.769531 215.613281 C 120.390625 215.613281 120.035156 215.550781 119.703125 215.421875 C 119.371094 215.292969 119.082031 215.105469 118.839844 214.867188 C 118.597656 214.628906 118.40625 214.335938 118.269531 213.996094 C 118.128906 213.65625 118.0625 213.277344 118.0625 212.855469 Z M 120.910156 210.324219 C 120.292969 210.324219 119.839844 210.464844 119.554688 210.746094 C 119.269531 211.023438 119.097656 211.429688 119.039062 211.953125 L 122.355469 211.953125 C 122.324219 211.382812 122.179688 210.96875 121.917969 210.710938 C 121.65625 210.453125 121.320312 210.324219 120.910156 210.324219 Z M 128.285156 214.878906 L 128.285156 211.527344 C 128.285156 211.03125 128.21875 210.699219 128.085938 210.53125 C 127.953125 210.359375 127.667969 210.289062 127.238281 210.316406 L 127.210938 210.21875 C 127.867188 210.050781 128.46875 209.964844 129.019531 209.964844 C 129.101562 210.144531 129.140625 210.34375 129.140625 210.558594 L 129.140625 214.460938 C 129.140625 214.734375 129.214844 214.9375 129.363281 215.070312 C 129.511719 215.203125 129.769531 215.300781 130.144531 215.359375 L 130.097656 215.484375 C 129.640625 215.429688 129.285156 215.402344 129.039062 215.402344 C 128.789062 215.402344 128.511719 215.429688 128.199219 215.484375 L 128.167969 215.433594 C 128.246094 215.332031 128.285156 215.144531 128.285156 214.878906 Z M 127.675781 208.023438 C 128.054688 207.832031 128.480469 207.671875 128.957031 207.542969 C 128.957031 207.832031 129.011719 208.117188 129.117188 208.402344 L 129.042969 208.496094 C 128.664062 208.515625 128.269531 208.609375 127.859375 208.769531 C 127.761719 208.53125 127.699219 208.28125 127.675781 208.023438 Z M 131.824219 214.878906 L 131.824219 211.527344 C 131.824219 211.292969 131.808594 211.097656 131.785156 210.941406 C 131.761719 210.785156 131.714844 210.660156 131.648438 210.566406 C 131.582031 210.472656 131.492188 210.40625 131.375 210.367188 C 131.261719 210.328125 131.140625 210.308594 131.007812 210.308594 C 130.882812 210.308594 130.804688 210.308594 130.773438 210.316406 L 130.75 210.21875 C 131.398438 210.050781 132 209.964844 132.558594 209.964844 C 132.640625 210.148438 132.679688 210.347656 132.679688 210.558594 L 132.679688 210.710938 C 132.914062 210.574219 133.125 210.457031 133.320312 210.355469 C 133.515625 210.253906 133.707031 210.167969 133.894531 210.097656 C 134.082031 210.03125 134.277344 209.976562 134.476562 209.941406 C 134.675781 209.90625 134.890625 209.890625 135.128906 209.890625 C 135.34375 209.890625 135.558594 209.914062 135.773438 209.964844 C 135.984375 210.011719 136.171875 210.097656 136.34375 210.226562 C 136.511719 210.351562 136.648438 210.519531 136.753906 210.738281 C 136.859375 210.953125 136.910156 211.226562 136.910156 211.558594 L 136.910156 214.808594 C 136.910156 214.894531 136.933594 214.964844 136.980469 215.019531 C 137.027344 215.074219 137.085938 215.121094 137.160156 215.160156 C 137.234375 215.199219 137.316406 215.230469 137.410156 215.257812 C 137.507812 215.28125 137.609375 215.308594 137.710938 215.339844 L 137.65625 215.460938 C 137.433594 215.421875 137.140625 215.402344 136.769531 215.402344 C 136.542969 215.402344 136.277344 215.429688 135.976562 215.484375 L 135.941406 215.433594 C 136.019531 215.332031 136.058594 215.144531 136.058594 214.878906 L 136.058594 211.75 C 136.058594 211.457031 136.027344 211.21875 135.964844 211.03125 C 135.902344 210.847656 135.816406 210.699219 135.707031 210.59375 C 135.597656 210.488281 135.46875 210.414062 135.324219 210.371094 C 135.179688 210.328125 135.027344 210.308594 134.863281 210.308594 C 134.664062 210.308594 134.476562 210.324219 134.304688 210.355469 C 134.132812 210.386719 133.960938 210.433594 133.789062 210.5 C 133.613281 210.5625 133.4375 210.644531 133.261719 210.738281 C 133.082031 210.835938 132.886719 210.949219 132.679688 211.078125 L 132.679688 214.683594 C 132.679688 214.796875 132.691406 214.886719 132.710938 214.953125 C 132.730469 215.019531 132.773438 215.078125 132.835938 215.125 C 132.902344 215.167969 132.988281 215.207031 133.105469 215.246094 C 133.21875 215.277344 133.371094 215.316406 133.558594 215.359375 L 133.507812 215.484375 C 133.28125 215.457031 133.085938 215.4375 132.921875 215.421875 C 132.761719 215.40625 132.632812 215.402344 132.53125 215.402344 C 132.304688 215.402344 132.042969 215.429688 131.738281 215.484375 L 131.707031 215.433594 C 131.785156 215.332031 131.824219 215.144531 131.824219 214.878906 Z M 139.636719 214.878906 L 139.636719 211.527344 C 139.636719 211.292969 139.621094 211.097656 139.597656 210.941406 C 139.570312 210.785156 139.523438 210.660156 139.460938 210.566406 C 139.394531 210.472656 139.304688 210.40625 139.1875 210.367188 C 139.074219 210.328125 138.949219 210.308594 138.824219 210.308594 C 138.691406 210.308594 138.613281 210.308594 138.585938 210.316406 L 138.5625 210.21875 C 139.207031 210.050781 139.8125 209.964844 140.367188 209.964844 C 140.449219 210.148438 140.492188 210.347656 140.492188 210.558594 L 140.492188 210.710938 C 140.722656 210.574219 140.9375 210.457031 141.132812 210.355469 C 141.324219 210.253906 141.515625 210.167969 141.703125 210.097656 C 141.894531 210.03125 142.085938 209.976562 142.285156 209.941406 C 142.484375 209.90625 142.703125 209.890625 142.941406 209.890625 C 143.15625 209.890625 143.371094 209.914062 143.582031 209.964844 C 143.796875 210.011719 143.984375 210.097656 144.15625 210.226562 C 144.324219 210.351562 144.460938 210.519531 144.566406 210.738281 C 144.671875 210.953125 144.722656 211.226562 144.722656 211.558594 L 144.722656 214.808594 C 144.722656 214.894531 144.746094 214.964844 144.792969 215.019531 C 144.839844 215.074219 144.898438 215.121094 144.96875 215.160156 C 145.042969 215.199219 145.128906 215.230469 145.222656 215.257812 C 145.320312 215.28125 145.417969 215.308594 145.523438 215.339844 L 145.46875 215.460938 C 145.246094 215.421875 144.949219 215.402344 144.578125 215.402344 C 144.355469 215.402344 144.089844 215.429688 143.789062 215.484375 L 143.753906 215.433594 C 143.832031 215.332031 143.871094 215.144531 143.871094 214.878906 L 143.871094 211.75 C 143.871094 211.457031 143.839844 211.21875 143.777344 211.03125 C 143.714844 210.847656 143.625 210.699219 143.515625 210.59375 C 143.40625 210.488281 143.28125 210.414062 143.136719 210.371094 C 142.992188 210.328125 142.835938 210.308594 142.675781 210.308594 C 142.476562 210.308594 142.289062 210.324219 142.117188 210.355469 C 141.945312 210.386719 141.773438 210.433594 141.597656 210.5 C 141.425781 210.5625 141.25 210.644531 141.070312 210.738281 C 140.890625 210.835938 140.699219 210.949219 140.492188 211.078125 L 140.492188 214.683594 C 140.492188 214.796875 140.503906 214.886719 140.523438 214.953125 C 140.542969 215.019531 140.585938 215.078125 140.648438 215.125 C 140.710938 215.167969 140.800781 215.207031 140.917969 215.246094 C 141.03125 215.277344 141.183594 215.316406 141.367188 215.359375 L 141.320312 215.484375 C 141.089844 215.457031 140.894531 215.4375 140.734375 215.421875 C 140.574219 215.40625 140.441406 215.402344 140.34375 215.402344 C 140.117188 215.402344 139.851562 215.429688 139.550781 215.484375 L 139.515625 215.433594 C 139.59375 215.332031 139.636719 215.144531 139.636719 214.878906 Z M 146.675781 212.855469 C 146.675781 212.484375 146.746094 212.125 146.886719 211.78125 C 147.023438 211.433594 147.222656 211.125 147.480469 210.855469 C 147.742188 210.585938 148.054688 210.367188 148.417969 210.207031 C 148.785156 210.042969 149.199219 209.964844 149.65625 209.964844 C 149.941406 209.964844 150.214844 210.007812 150.46875 210.09375 C 150.722656 210.179688 150.941406 210.308594 151.132812 210.488281 C 151.320312 210.667969 151.46875 210.898438 151.578125 211.179688 C 151.6875 211.460938 151.742188 211.792969 151.742188 212.179688 L 151.507812 212.367188 L 147.617188 212.367188 C 147.609375 212.425781 147.605469 212.484375 147.605469 212.542969 C 147.605469 212.597656 147.605469 212.652344 147.605469 212.707031 C 147.605469 213.089844 147.65625 213.433594 147.757812 213.742188 C 147.859375 214.054688 147.996094 214.320312 148.171875 214.539062 C 148.34375 214.761719 148.546875 214.933594 148.78125 215.054688 C 149.015625 215.175781 149.261719 215.238281 149.523438 215.238281 C 149.691406 215.238281 149.863281 215.226562 150.035156 215.203125 C 150.207031 215.183594 150.375 215.144531 150.542969 215.097656 C 150.707031 215.046875 150.867188 214.984375 151.019531 214.910156 C 151.175781 214.832031 151.320312 214.742188 151.449219 214.632812 L 151.695312 214.855469 C 151.378906 215.128906 151.039062 215.324219 150.667969 215.4375 C 150.300781 215.554688 149.875 215.613281 149.386719 215.613281 C 149.007812 215.613281 148.652344 215.550781 148.320312 215.421875 C 147.988281 215.292969 147.699219 215.105469 147.457031 214.867188 C 147.214844 214.628906 147.023438 214.335938 146.886719 213.996094 C 146.746094 213.65625 146.675781 213.277344 146.675781 212.855469 Z M 149.523438 210.324219 C 148.910156 210.324219 148.460938 210.464844 148.171875 210.746094 C 147.886719 211.023438 147.714844 211.429688 147.65625 211.953125 L 150.976562 211.953125 C 150.941406 211.382812 150.796875 210.96875 150.535156 210.710938 C 150.273438 210.453125 149.9375 210.324219 149.523438 210.324219 Z M 153.734375 214.878906 L 153.734375 211.527344 C 153.734375 211.292969 153.71875 211.097656 153.695312 210.941406 C 153.667969 210.785156 153.621094 210.660156 153.558594 210.566406 C 153.492188 210.472656 153.398438 210.40625 153.285156 210.367188 C 153.171875 210.328125 152.96875 210.308594 152.683594 210.316406 L 152.660156 210.21875 C 153.304688 210.050781 153.910156 209.964844 154.464844 209.964844 C 154.546875 210.148438 154.589844 210.347656 154.589844 210.558594 L 154.589844 211.203125 L 154.613281 211.222656 C 154.78125 211.019531 154.941406 210.84375 155.09375 210.683594 C 155.246094 210.527344 155.402344 210.398438 155.5625 210.292969 C 155.71875 210.1875 155.886719 210.109375 156.0625 210.054688 C 156.238281 210 156.433594 209.972656 156.648438 209.972656 C 156.78125 209.972656 156.929688 209.984375 157.09375 210.003906 L 156.746094 211.28125 L 156.527344 211.222656 C 156.527344 211.171875 156.523438 211.101562 156.515625 211.007812 C 156.507812 210.917969 156.496094 210.828125 156.480469 210.738281 C 156.46875 210.648438 156.449219 210.574219 156.425781 210.507812 C 156.40625 210.445312 156.382812 210.414062 156.355469 210.414062 C 156.238281 210.414062 156.121094 210.433594 156.003906 210.476562 C 155.886719 210.523438 155.761719 210.59375 155.621094 210.691406 C 155.480469 210.789062 155.328125 210.914062 155.164062 211.074219 C 154.996094 211.226562 154.804688 211.417969 154.589844 211.640625 L 154.589844 214.683594 C 154.589844 214.796875 154.601562 214.886719 154.621094 214.953125 C 154.640625 215.019531 154.683594 215.078125 154.746094 215.125 C 154.808594 215.167969 154.898438 215.207031 155.015625 215.246094 C 155.128906 215.277344 155.277344 215.316406 155.464844 215.359375 L 155.417969 215.484375 C 155.1875 215.457031 154.992188 215.4375 154.832031 215.421875 C 154.671875 215.40625 154.539062 215.402344 154.441406 215.402344 C 154.214844 215.402344 153.949219 215.429688 153.648438 215.484375 L 153.613281 215.433594 C 153.691406 215.332031 153.734375 215.144531 153.734375 214.878906 Z M 163.933594 215.613281 C 163.515625 215.613281 163.128906 215.542969 162.769531 215.394531 C 162.414062 215.25 162.113281 215.054688 161.878906 214.808594 C 161.636719 214.5625 161.449219 214.28125 161.316406 213.964844 C 161.179688 213.648438 161.113281 213.320312 161.113281 212.980469 C 161.113281 212.492188 161.195312 212.054688 161.359375 211.667969 C 161.519531 211.28125 161.746094 210.964844 162.039062 210.71875 C 162.328125 210.472656 162.667969 210.285156 163.054688 210.15625 C 163.441406 210.027344 163.863281 209.964844 164.324219 209.964844 C 164.835938 209.964844 165.359375 210.046875 165.898438 210.210938 L 165.511719 211.492188 L 165.292969 211.4375 C 165.335938 211.070312 165.320312 210.757812 165.253906 210.496094 C 164.808594 210.382812 164.40625 210.324219 164.042969 210.324219 C 163.347656 210.324219 162.839844 210.523438 162.519531 210.921875 C 162.203125 211.320312 162.042969 211.910156 162.042969 212.691406 C 162.042969 213.421875 162.238281 214.027344 162.625 214.511719 C 163.011719 214.996094 163.5 215.238281 164.09375 215.238281 C 164.828125 215.238281 165.425781 215.035156 165.886719 214.632812 L 166.132812 214.855469 C 165.832031 215.128906 165.507812 215.324219 165.15625 215.4375 C 164.804688 215.554688 164.398438 215.613281 163.933594 215.613281 Z M 167.773438 214.878906 L 167.773438 211.527344 C 167.773438 211.292969 167.761719 211.097656 167.738281 210.941406 C 167.710938 210.785156 167.664062 210.660156 167.597656 210.566406 C 167.535156 210.472656 167.441406 210.40625 167.328125 210.367188 C 167.210938 210.328125 167.011719 210.308594 166.726562 210.316406 L 166.703125 210.21875 C 167.351562 210.050781 167.953125 209.964844 168.507812 209.964844 C 168.59375 210.148438 168.632812 210.347656 168.632812 210.558594 L 168.632812 211.203125 L 168.65625 211.222656 C 168.824219 211.019531 168.984375 210.84375 169.136719 210.683594 C 169.289062 210.527344 169.445312 210.398438 169.605469 210.292969 C 169.765625 210.1875 169.929688 210.109375 170.105469 210.054688 C 170.277344 210 170.472656 209.972656 170.6875 209.972656 C 170.824219 209.972656 170.972656 209.984375 171.136719 210.003906 L 170.789062 211.28125 L 170.570312 211.222656 C 170.570312 211.171875 170.566406 211.101562 170.558594 211.007812 C 170.550781 210.917969 170.539062 210.828125 170.523438 210.738281 C 170.511719 210.648438 170.492188 210.574219 170.472656 210.507812 C 170.449219 210.445312 170.425781 210.414062 170.398438 210.414062 C 170.28125 210.414062 170.167969 210.433594 170.050781 210.476562 C 169.933594 210.523438 169.804688 210.59375 169.664062 210.691406 C 169.523438 210.789062 169.371094 210.914062 169.203125 211.074219 C 169.039062 211.226562 168.847656 211.417969 168.632812 211.640625 L 168.632812 214.683594 C 168.632812 214.796875 168.644531 214.886719 168.664062 214.953125 C 168.683594 215.019531 168.722656 215.078125 168.785156 215.125 C 168.851562 215.167969 168.941406 215.207031 169.054688 215.246094 C 169.171875 215.277344 169.324219 215.316406 169.507812 215.359375 L 169.460938 215.484375 C 169.230469 215.457031 169.035156 215.4375 168.875 215.421875 C 168.714844 215.40625 168.582031 215.402344 168.484375 215.402344 C 168.257812 215.402344 167.992188 215.429688 167.691406 215.484375 L 167.65625 215.433594 C 167.734375 215.332031 167.773438 215.144531 167.773438 214.878906 Z M 171.988281 212.855469 C 171.988281 212.484375 172.058594 212.125 172.195312 211.78125 C 172.335938 211.433594 172.535156 211.125 172.792969 210.855469 C 173.050781 210.585938 173.363281 210.367188 173.730469 210.207031 C 174.097656 210.042969 174.507812 209.964844 174.96875 209.964844 C 175.253906 209.964844 175.523438 210.007812 175.777344 210.09375 C 176.03125 210.179688 176.253906 210.308594 176.441406 210.488281 C 176.628906 210.667969 176.777344 210.898438 176.886719 211.179688 C 176.996094 211.460938 177.050781 211.792969 177.050781 212.179688 L 176.820312 212.367188 L 172.929688 212.367188 C 172.921875 212.425781 172.917969 212.484375 172.917969 212.542969 C 172.917969 212.597656 172.917969 212.652344 172.917969 212.707031 C 172.917969 213.089844 172.96875 213.433594 173.066406 213.742188 C 173.171875 214.054688 173.308594 214.320312 173.480469 214.539062 C 173.652344 214.761719 173.855469 214.933594 174.089844 215.054688 C 174.324219 215.175781 174.574219 215.238281 174.835938 215.238281 C 175.003906 215.238281 175.171875 215.226562 175.34375 215.203125 C 175.519531 215.183594 175.6875 215.144531 175.851562 215.097656 C 176.015625 215.046875 176.175781 214.984375 176.332031 214.910156 C 176.484375 214.832031 176.628906 214.742188 176.761719 214.632812 L 177.003906 214.855469 C 176.691406 215.128906 176.347656 215.324219 175.980469 215.4375 C 175.609375 215.554688 175.183594 215.613281 174.699219 215.613281 C 174.316406 215.613281 173.960938 215.550781 173.628906 215.421875 C 173.296875 215.292969 173.011719 215.105469 172.769531 214.867188 C 172.527344 214.628906 172.335938 214.335938 172.195312 213.996094 C 172.058594 213.65625 171.988281 213.277344 171.988281 212.855469 Z M 174.835938 210.324219 C 174.21875 210.324219 173.769531 210.464844 173.484375 210.746094 C 173.195312 211.023438 173.023438 211.429688 172.964844 211.953125 L 176.28125 211.953125 C 176.25 211.382812 176.105469 210.96875 175.84375 210.710938 C 175.585938 210.453125 175.25 210.324219 174.835938 210.324219 Z M 182.789062 211.621094 L 182.789062 214.808594 C 182.789062 214.871094 182.804688 214.925781 182.835938 214.972656 C 182.863281 215.023438 182.898438 215.066406 182.941406 215.101562 C 182.984375 215.132812 183.042969 215.164062 183.125 215.195312 C 183.203125 215.226562 183.273438 215.253906 183.332031 215.269531 C 183.390625 215.285156 183.476562 215.308594 183.582031 215.339844 L 183.535156 215.460938 C 183.28125 215.421875 183.027344 215.402344 182.777344 215.402344 C 182.464844 215.402344 182.152344 215.429688 181.847656 215.484375 L 181.8125 215.433594 C 181.894531 215.332031 181.9375 215.144531 181.9375 214.878906 L 181.9375 214.535156 C 181.738281 214.855469 181.429688 215.117188 181.011719 215.316406 C 180.59375 215.515625 180.167969 215.613281 179.738281 215.613281 C 179.28125 215.613281 178.914062 215.511719 178.632812 215.304688 C 178.351562 215.097656 178.214844 214.789062 178.214844 214.382812 C 178.214844 214.117188 178.277344 213.878906 178.402344 213.671875 C 178.527344 213.464844 178.691406 213.289062 178.902344 213.144531 C 179.109375 213 179.378906 212.871094 179.707031 212.761719 C 180.035156 212.648438 180.371094 212.558594 180.71875 212.488281 C 181.066406 212.417969 181.472656 212.355469 181.9375 212.296875 L 181.9375 211.8125 C 181.9375 210.855469 181.507812 210.375 180.644531 210.375 C 180.367188 210.375 180.027344 210.4375 179.625 210.558594 C 179.21875 210.675781 178.882812 210.835938 178.605469 211.03125 L 178.363281 210.785156 C 178.707031 210.542969 179.117188 210.34375 179.59375 210.1875 C 180.066406 210.03125 180.511719 209.953125 180.925781 209.953125 C 181.105469 209.953125 181.28125 209.96875 181.445312 209.996094 C 181.613281 210.027344 181.777344 210.082031 181.949219 210.160156 C 182.117188 210.238281 182.261719 210.335938 182.382812 210.457031 C 182.503906 210.578125 182.601562 210.738281 182.675781 210.9375 C 182.753906 211.140625 182.789062 211.367188 182.789062 211.621094 Z M 180.019531 215.21875 C 180.363281 215.21875 180.726562 215.117188 181.101562 214.917969 C 181.480469 214.714844 181.757812 214.46875 181.9375 214.167969 L 181.9375 212.570312 C 180.921875 212.703125 180.195312 212.898438 179.761719 213.164062 C 179.324219 213.433594 179.105469 213.820312 179.105469 214.328125 C 179.105469 214.640625 179.183594 214.863281 179.332031 215.007812 C 179.484375 215.148438 179.714844 215.21875 180.019531 215.21875 Z M 186.421875 210.558594 L 186.421875 213.957031 C 186.421875 214.429688 186.484375 214.757812 186.601562 214.9375 C 186.722656 215.117188 186.914062 215.207031 187.179688 215.207031 C 187.472656 215.207031 187.824219 215.113281 188.242188 214.917969 L 188.425781 215.144531 C 187.773438 215.457031 187.234375 215.613281 186.816406 215.613281 C 186.59375 215.613281 186.414062 215.597656 186.273438 215.5625 C 186.136719 215.527344 186.007812 215.460938 185.894531 215.359375 C 185.777344 215.257812 185.695312 215.109375 185.648438 214.914062 C 185.597656 214.714844 185.570312 214.460938 185.570312 214.144531 L 185.570312 210.601562 L 184.679688 210.648438 L 184.679688 210.316406 C 184.992188 210.253906 185.289062 210.214844 185.570312 210.199219 L 185.570312 209.457031 C 185.910156 209.289062 186.1875 209.050781 186.398438 208.742188 L 186.585938 208.804688 C 186.519531 208.941406 186.472656 209.101562 186.453125 209.277344 C 186.433594 209.453125 186.421875 209.75 186.421875 210.167969 L 188.472656 210.167969 L 188.472656 210.351562 C 188.308594 210.410156 188.140625 210.457031 187.96875 210.5 C 187.796875 210.539062 187.621094 210.558594 187.4375 210.558594 Z M 190.152344 214.878906 L 190.152344 211.527344 C 190.152344 211.03125 190.085938 210.699219 189.957031 210.53125 C 189.820312 210.359375 189.539062 210.289062 189.105469 210.316406 L 189.082031 210.21875 C 189.738281 210.050781 190.339844 209.964844 190.886719 209.964844 C 190.972656 210.144531 191.011719 210.34375 191.011719 210.558594 L 191.011719 214.460938 C 191.011719 214.734375 191.085938 214.9375 191.230469 215.070312 C 191.378906 215.203125 191.640625 215.300781 192.011719 215.359375 L 191.964844 215.484375 C 191.507812 215.429688 191.15625 215.402344 190.90625 215.402344 C 190.660156 215.402344 190.382812 215.429688 190.070312 215.484375 L 190.035156 215.433594 C 190.113281 215.332031 190.152344 215.144531 190.152344 214.878906 Z M 189.546875 208.023438 C 189.921875 207.832031 190.351562 207.671875 190.828125 207.542969 C 190.828125 207.832031 190.878906 208.117188 190.988281 208.402344 L 190.910156 208.496094 C 190.53125 208.515625 190.140625 208.609375 189.730469 208.769531 C 189.632812 208.53125 189.570312 208.28125 189.546875 208.023438 Z M 198.359375 210.121094 L 195.648438 215.667969 L 195.230469 215.5625 L 193.316406 211.160156 C 193.265625 211.027344 193.214844 210.914062 193.15625 210.820312 C 193.101562 210.726562 193.027344 210.652344 192.933594 210.59375 C 192.84375 210.539062 192.726562 210.503906 192.582031 210.492188 C 192.4375 210.476562 192.25 210.484375 192.023438 210.507812 L 191.964844 210.402344 C 192.632812 210.109375 193.230469 209.964844 193.757812 209.964844 L 195.332031 213.65625 C 195.46875 214.054688 195.558594 214.375 195.609375 214.617188 L 195.707031 214.617188 C 195.722656 214.570312 195.753906 214.484375 195.796875 214.359375 C 195.839844 214.230469 195.878906 214.121094 195.914062 214.035156 C 195.953125 213.945312 195.988281 213.859375 196.027344 213.773438 L 197.589844 210.617188 C 197.664062 210.457031 197.554688 210.355469 197.253906 210.308594 C 197.09375 210.285156 196.886719 210.285156 196.636719 210.304688 L 196.601562 210.179688 C 197.105469 210.082031 197.664062 210.027344 198.28125 210.015625 Z M 200 214.878906 L 200 211.527344 C 200 211.03125 199.933594 210.699219 199.804688 210.53125 C 199.671875 210.359375 199.386719 210.289062 198.953125 210.316406 L 198.929688 210.21875 C 199.585938 210.050781 200.1875 209.964844 200.734375 209.964844 C 200.820312 210.144531 200.859375 210.34375 200.859375 210.558594 L 200.859375 214.460938 C 200.859375 214.734375 200.933594 214.9375 201.082031 215.070312 C 201.226562 215.203125 201.488281 215.300781 201.859375 215.359375 L 201.816406 215.484375 C 201.359375 215.429688 201.003906 215.402344 200.753906 215.402344 C 200.507812 215.402344 200.230469 215.429688 199.917969 215.484375 L 199.882812 215.433594 C 199.960938 215.332031 200 215.144531 200 214.878906 Z M 199.394531 208.023438 C 199.769531 207.832031 200.199219 207.671875 200.675781 207.542969 C 200.675781 207.832031 200.730469 208.117188 200.835938 208.402344 L 200.761719 208.496094 C 200.382812 208.515625 199.988281 208.609375 199.578125 208.769531 C 199.480469 208.53125 199.417969 208.28125 199.394531 208.023438 Z M 204.457031 210.558594 L 204.457031 213.957031 C 204.457031 214.429688 204.519531 214.757812 204.640625 214.9375 C 204.757812 215.117188 204.949219 215.207031 205.214844 215.207031 C 205.507812 215.207031 205.859375 215.113281 206.277344 214.917969 L 206.460938 215.144531 C 205.804688 215.457031 205.269531 215.613281 204.855469 215.613281 C 204.628906 215.613281 204.449219 215.597656 204.308594 215.5625 C 204.171875 215.527344 204.042969 215.460938 203.929688 215.359375 C 203.8125 215.257812 203.730469 215.109375 203.683594 214.914062 C 203.632812 214.714844 203.605469 214.460938 203.605469 214.144531 L 203.605469 210.601562 L 202.714844 210.648438 L 202.714844 210.316406 C 203.027344 210.253906 203.324219 210.214844 203.605469 210.199219 L 203.605469 209.457031 C 203.945312 209.289062 204.222656 209.050781 204.4375 208.742188 L 204.621094 208.804688 C 204.550781 208.941406 204.507812 209.101562 204.488281 209.277344 C 204.46875 209.453125 204.457031 209.75 204.457031 210.167969 L 206.507812 210.167969 L 206.507812 210.351562 C 206.34375 210.410156 206.175781 210.457031 206.003906 210.5 C 205.832031 210.539062 205.65625 210.558594 205.472656 210.558594 Z M 212.914062 210.015625 L 212.984375 210.121094 L 210.449219 215.890625 C 210.339844 216.140625 210.246094 216.34375 210.167969 216.503906 C 210.09375 216.664062 210.003906 216.828125 209.898438 217.003906 C 209.796875 217.175781 209.695312 217.316406 209.597656 217.425781 C 209.5 217.53125 209.386719 217.632812 209.257812 217.71875 C 209.128906 217.808594 208.988281 217.875 208.839844 217.925781 C 208.207031 217.945312 207.652344 217.757812 207.175781 217.363281 C 207.390625 217.128906 207.6875 216.933594 208.070312 216.769531 L 208.140625 216.832031 C 208.300781 217.15625 208.558594 217.390625 208.910156 217.535156 C 209.082031 217.410156 209.257812 217.210938 209.4375 216.929688 C 209.617188 216.648438 209.839844 216.195312 210.109375 215.5625 L 207.984375 211.160156 C 207.875 210.914062 207.75 210.734375 207.613281 210.628906 C 207.476562 210.519531 207.335938 210.46875 207.191406 210.472656 C 207.046875 210.472656 206.878906 210.484375 206.695312 210.507812 L 206.628906 210.402344 C 207.296875 210.109375 207.878906 209.964844 208.386719 209.964844 L 210.179688 213.792969 C 210.257812 213.964844 210.351562 214.285156 210.460938 214.757812 L 210.558594 214.757812 C 210.75 214.203125 210.847656 213.921875 210.851562 213.910156 L 212.179688 210.570312 C 212.234375 210.445312 212.171875 210.355469 212.003906 210.300781 C 211.832031 210.246094 211.574219 210.234375 211.230469 210.261719 L 211.191406 210.128906 C 211.527344 210.070312 212.101562 210.035156 212.914062 210.015625 Z M 220.878906 214.183594 C 220.878906 214.433594 220.820312 214.648438 220.707031 214.832031 C 220.59375 215.011719 220.4375 215.160156 220.246094 215.277344 C 220.050781 215.394531 219.828125 215.480469 219.570312 215.535156 C 219.316406 215.585938 219.046875 215.613281 218.761719 215.613281 C 218.082031 215.613281 217.441406 215.488281 216.839844 215.238281 C 216.914062 215.007812 216.992188 214.792969 217.066406 214.597656 C 217.140625 214.402344 217.21875 214.21875 217.296875 214.050781 L 217.472656 214.105469 C 217.4375 214.257812 217.417969 214.40625 217.417969 214.546875 C 217.417969 214.6875 217.425781 214.816406 217.433594 214.929688 C 217.558594 214.984375 217.675781 215.03125 217.78125 215.074219 C 217.890625 215.113281 217.996094 215.144531 218.101562 215.171875 C 218.210938 215.199219 218.324219 215.21875 218.449219 215.230469 C 218.570312 215.242188 218.714844 215.25 218.878906 215.25 C 219.121094 215.25 219.320312 215.234375 219.476562 215.207031 C 219.636719 215.179688 219.761719 215.132812 219.851562 215.0625 C 219.941406 214.996094 220.003906 214.90625 220.039062 214.792969 C 220.074219 214.679688 220.09375 214.539062 220.09375 214.371094 C 220.09375 214.242188 220.066406 214.121094 220.019531 214.007812 C 219.96875 213.894531 219.882812 213.78125 219.761719 213.671875 C 219.640625 213.558594 219.480469 213.441406 219.28125 213.324219 C 219.078125 213.203125 218.828125 213.070312 218.53125 212.925781 C 218.050781 212.675781 217.6875 212.425781 217.441406 212.179688 C 217.195312 211.929688 217.070312 211.660156 217.070312 211.375 C 217.070312 211.148438 217.125 210.945312 217.234375 210.769531 C 217.339844 210.59375 217.484375 210.449219 217.667969 210.328125 C 217.855469 210.207031 218.070312 210.117188 218.316406 210.054688 C 218.5625 209.996094 218.824219 209.964844 219.097656 209.964844 C 219.238281 209.964844 219.382812 209.972656 219.535156 209.988281 C 219.691406 210.007812 219.835938 210.03125 219.980469 210.066406 C 220.121094 210.097656 220.257812 210.140625 220.382812 210.1875 C 220.507812 210.234375 220.613281 210.285156 220.707031 210.34375 C 220.578125 210.800781 220.425781 211.203125 220.242188 211.546875 L 220.070312 211.492188 C 220.078125 211.390625 220.082031 211.265625 220.085938 211.117188 C 220.089844 210.96875 220.09375 210.792969 220.09375 210.589844 C 219.835938 210.414062 219.476562 210.324219 219.019531 210.324219 C 218.792969 210.324219 218.601562 210.335938 218.445312 210.359375 C 218.289062 210.386719 218.160156 210.425781 218.066406 210.484375 C 217.972656 210.546875 217.902344 210.628906 217.863281 210.730469 C 217.820312 210.832031 217.800781 210.960938 217.800781 211.117188 C 217.800781 211.234375 217.816406 211.339844 217.851562 211.441406 C 217.886719 211.539062 217.953125 211.636719 218.042969 211.730469 C 218.132812 211.828125 218.257812 211.925781 218.417969 212.027344 C 218.574219 212.125 218.773438 212.234375 219.019531 212.347656 C 219.40625 212.53125 219.71875 212.695312 219.960938 212.832031 C 220.199219 212.972656 220.390625 213.109375 220.523438 213.246094 C 220.660156 213.378906 220.753906 213.519531 220.804688 213.664062 C 220.855469 213.8125 220.878906 213.984375 220.878906 214.183594 Z M 227.160156 214.878906 L 227.160156 211.75 C 227.160156 211.457031 227.128906 211.21875 227.0625 211.03125 C 227 210.847656 226.914062 210.699219 226.804688 210.59375 C 226.695312 210.488281 226.570312 210.414062 226.425781 210.371094 C 226.28125 210.328125 226.125 210.308594 225.960938 210.308594 C 225.761719 210.308594 225.578125 210.324219 225.40625 210.355469 C 225.230469 210.386719 225.058594 210.433594 224.886719 210.5 C 224.714844 210.5625 224.539062 210.644531 224.359375 210.738281 C 224.179688 210.835938 223.988281 210.949219 223.78125 211.078125 L 223.78125 214.683594 C 223.78125 214.796875 223.792969 214.886719 223.8125 214.953125 C 223.832031 215.019531 223.871094 215.078125 223.933594 215.125 C 224 215.167969 224.089844 215.207031 224.203125 215.246094 C 224.320312 215.277344 224.46875 215.316406 224.65625 215.359375 L 224.609375 215.484375 C 224.378906 215.457031 224.183594 215.4375 224.023438 215.421875 C 223.863281 215.40625 223.699219 215.402344 223.539062 215.402344 C 223.375 215.402344 223.140625 215.429688 222.839844 215.484375 L 222.800781 215.433594 C 222.882812 215.332031 222.921875 215.144531 222.921875 214.878906 L 222.921875 208.613281 C 222.921875 208.378906 222.910156 208.1875 222.882812 208.03125 C 222.859375 207.871094 222.8125 207.746094 222.746094 207.652344 C 222.679688 207.558594 222.589844 207.492188 222.476562 207.453125 C 222.359375 207.414062 222.238281 207.394531 222.109375 207.394531 C 221.980469 207.394531 221.902344 207.398438 221.875 207.402344 L 221.851562 207.308594 C 222.5 207.136719 223.101562 207.050781 223.65625 207.050781 C 223.738281 207.234375 223.78125 207.433594 223.78125 207.648438 L 223.78125 210.710938 C 224.054688 210.546875 224.304688 210.410156 224.527344 210.304688 C 224.753906 210.199219 224.964844 210.113281 225.160156 210.050781 C 225.355469 209.988281 225.542969 209.945312 225.722656 209.921875 C 225.898438 209.898438 226.078125 209.882812 226.257812 209.882812 C 226.507812 209.882812 226.738281 209.914062 226.945312 209.972656 C 227.15625 210.027344 227.335938 210.121094 227.484375 210.253906 C 227.636719 210.382812 227.757812 210.554688 227.851562 210.769531 C 227.941406 210.980469 227.996094 211.246094 228.011719 211.558594 L 228.011719 214.808594 C 228.011719 214.894531 228.035156 214.964844 228.078125 215.019531 C 228.125 215.074219 228.183594 215.121094 228.261719 215.160156 C 228.332031 215.199219 228.417969 215.230469 228.511719 215.257812 C 228.605469 215.28125 228.707031 215.308594 228.808594 215.339844 L 228.753906 215.460938 C 228.535156 215.421875 228.273438 215.402344 227.976562 215.402344 C 227.679688 215.402344 227.378906 215.429688 227.078125 215.484375 L 227.039062 215.433594 C 227.121094 215.332031 227.160156 215.144531 227.160156 214.878906 Z M 230.734375 214.878906 L 230.734375 211.527344 C 230.734375 211.03125 230.667969 210.699219 230.535156 210.53125 C 230.402344 210.359375 230.117188 210.289062 229.683594 210.316406 L 229.660156 210.21875 C 230.316406 210.050781 230.917969 209.964844 231.46875 209.964844 C 231.550781 210.144531 231.589844 210.34375 231.589844 210.558594 L 231.589844 214.460938 C 231.589844 214.734375 231.664062 214.9375 231.8125 215.070312 C 231.960938 215.203125 232.21875 215.300781 232.59375 215.359375 L 232.546875 215.484375 C 232.089844 215.429688 231.738281 215.402344 231.488281 215.402344 C 231.238281 215.402344 230.960938 215.429688 230.652344 215.484375 L 230.617188 215.433594 C 230.695312 215.332031 230.734375 215.144531 230.734375 214.878906 Z M 230.128906 208.023438 C 230.503906 207.832031 230.933594 207.671875 231.410156 207.542969 C 231.410156 207.832031 231.460938 208.117188 231.570312 208.402344 L 231.492188 208.496094 C 231.113281 208.515625 230.71875 208.609375 230.308594 208.769531 C 230.210938 208.53125 230.148438 208.28125 230.128906 208.023438 Z M 234.273438 214.878906 L 234.273438 211.527344 C 234.273438 211.292969 234.261719 211.097656 234.234375 210.941406 C 234.207031 210.785156 234.164062 210.660156 234.097656 210.566406 C 234.03125 210.472656 233.941406 210.40625 233.828125 210.367188 C 233.710938 210.328125 233.589844 210.308594 233.457031 210.308594 C 233.332031 210.308594 233.253906 210.308594 233.222656 210.316406 L 233.199219 210.21875 C 233.847656 210.050781 234.449219 209.964844 235.007812 209.964844 C 235.089844 210.148438 235.128906 210.347656 235.128906 210.558594 L 235.128906 210.710938 C 235.363281 210.574219 235.574219 210.457031 235.769531 210.355469 C 235.964844 210.253906 236.15625 210.167969 236.34375 210.097656 C 236.53125 210.03125 236.726562 209.976562 236.925781 209.941406 C 237.125 209.90625 237.34375 209.890625 237.582031 209.890625 C 237.792969 209.890625 238.007812 209.914062 238.21875 209.964844 C 238.433594 210.011719 238.625 210.097656 238.792969 210.226562 C 238.960938 210.351562 239.097656 210.519531 239.203125 210.738281 C 239.308594 210.953125 239.363281 211.226562 239.363281 211.558594 L 239.363281 214.808594 C 239.363281 214.894531 239.386719 214.964844 239.429688 215.019531 C 239.476562 215.074219 239.535156 215.121094 239.609375 215.160156 C 239.683594 215.199219 239.765625 215.230469 239.863281 215.257812 C 239.957031 215.28125 240.058594 215.308594 240.160156 215.339844 L 240.105469 215.460938 C 239.882812 215.421875 239.589844 215.402344 239.21875 215.402344 C 238.992188 215.402344 238.726562 215.429688 238.425781 215.484375 L 238.390625 215.433594 C 238.472656 215.332031 238.511719 215.144531 238.511719 214.878906 L 238.511719 211.75 C 238.511719 211.457031 238.476562 211.21875 238.414062 211.03125 C 238.351562 210.847656 238.265625 210.699219 238.15625 210.59375 C 238.046875 210.488281 237.917969 210.414062 237.773438 210.371094 C 237.628906 210.328125 237.476562 210.308594 237.3125 210.308594 C 237.113281 210.308594 236.929688 210.324219 236.757812 210.355469 C 236.582031 210.386719 236.410156 210.433594 236.234375 210.5 C 236.0625 210.5625 235.886719 210.644531 235.710938 210.738281 C 235.53125 210.835938 235.335938 210.949219 235.128906 211.078125 L 235.128906 214.683594 C 235.128906 214.796875 235.140625 214.886719 235.160156 214.953125 C 235.179688 215.019531 235.222656 215.078125 235.285156 215.125 C 235.351562 215.167969 235.441406 215.207031 235.554688 215.246094 C 235.667969 215.277344 235.820312 215.316406 236.007812 215.359375 L 235.960938 215.484375 C 235.730469 215.457031 235.535156 215.4375 235.371094 215.421875 C 235.210938 215.40625 235.082031 215.402344 234.980469 215.402344 C 234.753906 215.402344 234.492188 215.429688 234.1875 215.484375 L 234.15625 215.433594 C 234.234375 215.332031 234.273438 215.144531 234.273438 214.878906 Z M 241.316406 212.855469 C 241.316406 212.484375 241.386719 212.125 241.523438 211.78125 C 241.664062 211.433594 241.863281 211.125 242.121094 210.855469 C 242.378906 210.585938 242.691406 210.367188 243.058594 210.207031 C 243.425781 210.042969 243.839844 209.964844 244.296875 209.964844 C 244.582031 209.964844 244.851562 210.007812 245.105469 210.09375 C 245.359375 210.179688 245.582031 210.308594 245.769531 210.488281 C 245.957031 210.667969 246.105469 210.898438 246.214844 211.179688 C 246.324219 211.460938 246.378906 211.792969 246.378906 212.179688 L 246.148438 212.367188 L 242.257812 212.367188 C 242.25 212.425781 242.246094 212.484375 242.246094 212.542969 C 242.246094 212.597656 242.246094 212.652344 242.246094 212.707031 C 242.246094 213.089844 242.296875 213.433594 242.398438 213.742188 C 242.5 214.054688 242.636719 214.320312 242.808594 214.539062 C 242.980469 214.761719 243.183594 214.933594 243.417969 215.054688 C 243.652344 215.175781 243.902344 215.238281 244.164062 215.238281 C 244.332031 215.238281 244.5 215.226562 244.671875 215.203125 C 244.847656 215.183594 245.015625 215.144531 245.179688 215.097656 C 245.34375 215.046875 245.503906 214.984375 245.660156 214.910156 C 245.8125 214.832031 245.957031 214.742188 246.089844 214.632812 L 246.332031 214.855469 C 246.019531 215.128906 245.679688 215.324219 245.308594 215.4375 C 244.9375 215.554688 244.511719 215.613281 244.027344 215.613281 C 243.644531 215.613281 243.289062 215.550781 242.957031 215.421875 C 242.625 215.292969 242.339844 215.105469 242.097656 214.867188 C 241.855469 214.628906 241.664062 214.335938 241.523438 213.996094 C 241.386719 213.65625 241.316406 213.277344 241.316406 212.855469 Z M 244.164062 210.324219 C 243.546875 210.324219 243.097656 210.464844 242.8125 210.746094 C 242.523438 211.023438 242.351562 211.429688 242.292969 211.953125 L 245.609375 211.953125 C 245.582031 211.382812 245.433594 210.96875 245.175781 210.710938 C 244.914062 210.453125 244.578125 210.324219 244.164062 210.324219 Z M 244.164062 210.324219 "/>
</g>
</g>
</svg>
